<svg xmlns="http://www.w3.org/2000/svg" version="1.1" xmlns:xlink="http://www.w3.org/1999/xlink" xmlns:svgjs="http://svgjs.dev/svgjs" width="308.7612359841165"
   height="304.915625" viewBox="0 0 1000 1112"><g transform="matrix(1,0,0,1,1.0955697803066755,0.451033781868432)"><svg viewBox="0 0 222 247" data-background-color="#ffffff" preserveAspectRatio="xMidYMid meet" height="1112" width="1000" xmlns="http://www.w3.org/2000/svg" xmlns:xlink="http://www.w3.org/1999/xlink"><g id="tight-bounds" transform="matrix(1,0,0,1,-0.24321649122808253,-0.09997365579205564)"><svg viewBox="0 0 222.48643298245617 247.19999999999996" height="247.19999999999996" width="222.48643298245617"><g><svg viewBox="0 0 222.48643298245617 247.19999999999996" height="247.19999999999996" width="222.48643298245617"><g><svg viewBox="0 0 222.48643298245617 247.19999999999996" height="247.19999999999996" width="222.48643298245617"><g id="textblocktransform"><svg viewBox="0 0 222.48643298245617 247.19999999999996" height="247.19999999999996" width="222.48643298245617" id="textblock"><g><svg viewBox="0 0 222.48643298245617 247.19999999999996" height="247.19999999999996" width="222.48643298245617"><path d="M221.966 53.02C220.92 27.36 217.939 20.227 217.939 20.227 208.786-6.202 197.365-0.506 187.104 3.292 168.988 3.446 150.945 9.091 132.871 12.119 94.934 12.581 56.673 4.986 18.924 23.717 15.379 29.464-3.679 24.846 0.631 56.304 1.76 69.39 5.881 83.913 5.756 95.922 6.321 98.026 7.105 93.202 7.44 96.23 8.611 104.39 10.525 100.541 12.094 105.365 9.908 118.246 11.477 128.971 12.973 140.21 10.337 143.135 6.959 141.749 5.442 151.449 5.285 158.479 4.438 157.145 3.507 156.837 2.827 156.632 1.457 157.402 1.687 159.608 2.472 167.152-0.896 171.514 1.216 178.904-0.237 186.91 2.221 193.838 1.886 202.511 1.844 204.255 2.074 205.744 2.44 206.154 4.061 208.361 1.698 212.672 1.949 217.342 18.579 249.262 36.622 227.195 53.661 241.872 58.085 231.608 54.759 245.516 56.527 243.36 57.907 240.846 58.911 251.263 60.47 245.362 60.71 243.668 60.344 239.665 61.202 240.435 61.652 240.846 62.049 240.743 62.112 238.382 62.206 234.841 61.38 237.048 61.16 235.201 63.535 225.861 62.949 248.081 65.177 247.158 65.072 244.438 64.424 240.538 65.752 241.051 67.07 237.151 67.112 233.918 68.283 242.693 68.325 244.592 68.534 245.926 68.869 246.85 72.53 237.305 76.17 250.237 80.008 245.926 82.362 241.205 84.621 248.492 87.006 246.696 87.843 245.259 88.69 242.693 89.495 247.004 99.359 247.928 109.87 244.079 119.221 247.158 144.209 241.41 170.912 249.518 197.26 241.923 203.473 238.998 209.927 234.841 215.983 231.506 215.983 231.506 220.888 222.371 220.888 181.316S221.934 145.393 222.091 112.703C222.248 80.013 222.98 78.679 221.934 53.02Z" opacity="1" fill="#c10000" data-fill-palette-color="tertiary"></path><g transform="matrix(1,0,0,1,55.76832000000001,26.230666666666668)"><svg width="110.94979298245615" viewBox="2.5 -36.04999923706055 21.649999618530273 38" height="194.73866666666663" data-palette-color="#ffffff"><path d="M22.75-35.6Q24-35.1 24-34.2L24-34.2Q24-33.3 22.75-31.9L22.75-31.9Q22.2-31.95 21.15-31.95L21.15-31.95Q18.85-31.95 16.75-31.33 14.65-30.7 12.4-29.4L12.4-29.4Q11.35-28.75 10.6-27.75L10.6-27.75Q10.05-27.15 10.05-26.35L10.05-26.35Q10.05-25 11.55-23.75L11.55-23.75Q13-22.25 16.3-18.3L16.3-18.3 17.45-17.1Q19.9-14.45 21.33-12.6 22.75-10.75 23.75-8.35L23.75-8.35Q24.15-7.3 24.15-6.45L24.15-6.45Q24.15-4.3 22.5-2.5L22.5-2.5Q20.6-0.4 18.1 0.58 15.6 1.55 12.45 1.8L12.45 1.8Q12.05 1.85 11.5 1.9 10.95 1.95 10.25 1.95L10.25 1.95Q9.8 1.95 8.9 1.85L8.9 1.85Q7.8 1.9 6.6 1.48 5.4 1.05 4.4 0.25L4.4 0.25Q2.5-1.35 2.5-3.3L2.5-3.3Q2.5-4.95 3.9-6.65L3.9-6.65Q4.6-6.55 4.73-6.23 4.85-5.9 4.78-5.5 4.7-5.1 4.7-4.85L4.7-4.85Q4.7-4.7 4.8-4.4L4.8-4.4Q6.75-3.5 9.45-3.5L9.45-3.5Q12.45-3.5 15.13-4.53 17.8-5.55 18.4-7.05L18.4-7.05Q18.75-8.05 16.7-10.58 14.65-13.1 12.1-15.5L12.1-15.5Q9.7-17.65 7.75-19.75L7.75-19.75Q6.65-20.95 6.03-22.53 5.4-24.1 5.4-25.8L5.4-25.8Q5.4-28.1 6.58-30.15 7.75-32.2 10.1-33.5L10.1-33.5Q14.6-36.05 19.3-36.05L19.3-36.05Q19.95-36.05 21.15-35.95L21.15-35.95Q22.25-35.85 22.75-35.6L22.75-35.6Z" opacity="1" transform="matrix(1,0,0,1,0,0)" fill="#ffffff" class="wordmark-text-0" data-fill-palette-color="quaternary" id="text-0"></path></svg></g></svg></g></svg></g></svg></g><g></g></svg></g><defs></defs></svg><rect width="222.48643298245617" height="247.19999999999996" fill="none" stroke="none" visibility="hidden"></rect></g></svg></g></svg>